<?xml version="1.0" encoding="utf-8"?>
<!-- Generator: Adobe Illustrator 22.0.0, SVG Export Plug-In . SVG Version: 6.00 Build 0)  -->
<svg version="1.1" xmlns="http://www.w3.org/2000/svg" xmlns:xlink="http://www.w3.org/1999/xlink" x="0px" y="0px"
	 viewBox="0 0 1024 1024" enable-background="new 0 0 1024 1024" xml:space="preserve">
<g id="Background">
	<linearGradient id="SVGID_1_" gradientUnits="userSpaceOnUse" x1="0" y1="512" x2="1024" y2="512">
		<stop  offset="0" style="stop-color:#CE2636"/>
		<stop  offset="1" style="stop-color:#A40063"/>
	</linearGradient>
	<path fill="url(#SVGID_1_)" d="M804,1024H220C98.5,1024,0,925.5,0,804V220C0,98.5,98.5,0,220,0h584c121.5,0,220,98.5,220,220v584
		C1024,925.5,925.5,1024,804,1024z"/>
</g>
<g id="C-finger">
	<path fill="#FFFFFF" d="M536.7,699.1c-54.6,0-107-19.8-143-60.7c-36.3-41.3-53.7-94.2-47.1-148.9c11.6-94.7,94.1-167.1,190-167.1
		h262.6c20.6,0,32.4-23.8,19.6-40.1c-65.8-83.6-164.7-127.5-269-131.2c-109.5-3.9-216.6,42.6-288.2,125.5
		c-72,83.3-102.7,196.7-82.7,305c19.5,105.7,86.8,199.2,180.5,251.8c100.8,56.6,225.9,56.5,330.8,7.8
		c50.1-23.3,94.6-56.6,129.4-102.2c12.5-16.4,1.1-40.1-19.6-40.1H536.7z"/>
	<path fill="#FFFFFF" d="M655.9,529.7c0-38.1-0.2-78.4,5.3-115.9c1.5-10.5-6.7-19.8-17.3-19.8l-118.6,0c-8.1,0-16.1,0-24.2,0
		c-48.5,0-84.4,65.9-84.4,117.6c0,54.8,37.1,120.8,84.2,120.8c8.1,0,16.1,0,24.2,0h119.6c10.6,0,18.8-9.4,17.3-19.9
		C659.3,593.7,655.9,563.3,655.9,529.7z"/>
	<path fill="#FFFFFF" d="M788.1,529.7c0-38.6-0.2-79.3,6.4-117.1c1.7-9.6-5.6-18.5-15.3-18.5h-20.2c-7.5,0-14,5.3-15.4,12.7
		c-7.6,39.5-7.4,82.4-7.4,123c0,38.2,5.1,72.3,8.3,89.9c1.4,7.4,7.8,12.8,15.4,12.8h20.3c9.7,0,17-8.7,15.4-18.2
		C792.3,595.5,788.1,564.3,788.1,529.7z"/>
</g>
</svg>
