<?xml version="1.0" encoding="UTF-8"?>
<svg width="167px" height="167px" viewBox="0 0 167 167" version="1.1" xmlns="http://www.w3.org/2000/svg" xmlns:xlink="http://www.w3.org/1999/xlink">
    <title>Everboard_icon</title>
    <g id="Page-1" stroke="none" stroke-width="1" fill="none" fill-rule="evenodd">
        <g id="Everboard_icon">
            <path d="M127.065217,-1.7846741e-15 C151.124109,-1.7846741e-15 167,15.5551061 167,39.9347826 L167,127.065217 C167,151.444894 151.124109,167 127.065217,167 L39.9347826,167 C15.8758913,167 0,151.444894 0,127.065217 L0,39.9347826 C0,15.5551061 15.8758913,-1.80986528e-15 39.9347826,-1.8098653e-15 L127.065217,-1.7846741e-15 Z" id="App-Icon" fill="#F8F8F8" style="mix-blend-mode: lighten;" opacity="0.9"></path>
            <path d="M127.065217,-1.7846741e-15 C151.124109,-1.7846741e-15 167,15.5551061 167,39.9347826 L167,127.065217 C167,151.444894 151.124109,167 127.065217,167 L39.9347826,167 C15.8758913,167 0,151.444894 0,127.065217 L0,39.9347826 C0,15.5551061 15.8758913,-1.80986528e-15 39.9347826,-1.8098653e-15 L127.065217,-1.7846741e-15 Z" id="App-Icon-Copy" fill="#F8F8F8" style="mix-blend-mode: lighten;" opacity="0.9"></path>
            <polygon id="Rectangle-1-Copy-23" fill-opacity="0.806782156" fill="#8477E4" points="38.8964475 82.3982853 54.296136 27.656051 69.4692635 82.3982854 54.296136 136.152866"></polygon>
            <polygon id="Rectangle-1-Copy-22" fill="#F9F9F9" points="47.2889852 82.3982853 62.6886737 27.656051 77.8618013 82.3982854 62.6886737 136.152866"></polygon>
            <polygon id="Rectangle-1-Copy-21" fill-opacity="0.805621603" fill="#6656DD" points="53.883122 82.3982853 69.2828105 27.656051 84.455938 82.3982854 69.2828105 136.152866"></polygon>
            <polygon id="Rectangle-1-Copy-20" fill="#F9F9F9" points="62.8751267 82.3982853 78.2748152 27.656051 93.4479427 82.3982854 78.2748152 136.152866"></polygon>
            <polygon id="Rectangle-1-Copy-23" fill-opacity="0.806782156" fill="#8477E4" points="70.2038217 82.3982853 85.6035101 27.656051 100.776638 82.3982854 85.6035101 136.152866"></polygon>
            <polygon id="Rectangle-1-Copy-22" fill="#F9F9F9" points="78.5963594 82.3982853 93.9960479 27.656051 109.169175 82.3982854 93.9960479 136.152866"></polygon>
            <polygon id="Rectangle-1-Copy-21" fill-opacity="0.805621603" fill="#6656DD" points="85.1904962 82.3982853 100.590185 27.656051 115.763312 82.3982854 100.590185 136.152866"></polygon>
            <polygon id="Rectangle-1-Copy-20" fill="#F9F9F9" points="94.1825009 82.3982853 109.582189 27.656051 124.755317 82.3982854 109.582189 136.152866"></polygon>
            <path d="M101.376105,82.3982853 L116.775793,27.656051 L131.948921,82.3982854 L123.806587,111.24453 C121.462989,119.547309 116.775793,136.152866 116.775793,136.152866 L101.376105,82.3982853 Z" id="Rectangle-1-Copy-19" fill="#6656DD"></path>
            <polygon id="Rectangle-1-Copy-32" fill-opacity="0.806782156" fill="#FEC6C6" points="38.8964475 82.3982853 54.296136 27.656051 69.4692635 82.3982854 54.296136 136.152866"></polygon>
            <polygon id="Rectangle-1-Copy-31" fill="#F9F9F9" points="47.2889852 82.3982853 62.6886737 27.656051 77.8618013 82.3982854 62.6886737 136.152866"></polygon>
            <polygon id="Rectangle-1-Copy-30" fill-opacity="0.805621603" fill="#FF8686" points="53.883122 82.3982853 69.2828105 27.656051 84.455938 82.3982854 69.2828105 136.152866"></polygon>
            <polygon id="Rectangle-1-Copy-29" fill="#F9F9F9" points="62.8751267 82.3982853 78.2748152 27.656051 93.4479427 82.3982854 78.2748152 136.152866"></polygon>
            <polygon id="Rectangle-1-Copy-28" fill-opacity="0.806782156" fill="#E47777" points="70.2038217 82.3982853 85.6035101 27.656051 100.776638 82.3982854 85.6035101 136.152866"></polygon>
            <polygon id="Rectangle-1-Copy-27" fill="#F9F9F9" points="78.5963594 82.3982853 93.9960479 27.656051 109.169175 82.3982854 93.9960479 136.152866"></polygon>
            <polygon id="Rectangle-1-Copy-26" fill-opacity="0.805621603" fill="#FF2A2A" points="85.1904962 82.3982853 100.590185 27.656051 115.763312 82.3982854 100.590185 136.152866"></polygon>
            <polygon id="Rectangle-1-Copy-25" fill="#F9F9F9" points="94.1825009 82.3982853 109.582189 27.656051 124.755317 82.3982854 109.582189 136.152866"></polygon>
            <path d="M101.376105,82.3982853 L116.775793,27.656051 L131.948921,82.3982854 L123.806587,111.24453 C121.462989,119.547309 116.775793,136.152866 116.775793,136.152866 L101.376105,82.3982853 Z" id="Rectangle-1-Copy-24" fill="#FF0000"></path>
        </g>
    </g>
</svg>